<?xml version="1.0" standalone="no"?>
<!DOCTYPE svg PUBLIC "-//W3C//DTD SVG 20010904//EN"
 "http://www.w3.org/TR/2001/REC-SVG-20010904/DTD/svg10.dtd">
<svg version="1.0" xmlns="http://www.w3.org/2000/svg"
 width="512.000000pt" height="512.000000pt" viewBox="0 0 512.000000 512.000000"
 preserveAspectRatio="xMidYMid meet">
<metadata>
Created by potrace 1.11, written by Peter Selinger 2001-2013
</metadata>
<g transform="translate(0.000000,512.000000) scale(0.100000,-0.100000)"
fill="#000000" stroke="none">
<path d="M478 3974 c-32 -17 -48 -43 -48 -77 0 -56 85 -72 126 -23 l24 28 83
-55 c99 -66 215 -184 287 -291 62 -93 146 -266 189 -390 37 -104 263 -888 258
-892 -2 -2 -18 33 -36 79 -113 280 -345 635 -529 809 -96 90 -178 130 -282
136 -72 4 -79 3 -90 -17 -6 -12 -10 -41 -8 -64 2 -35 8 -44 31 -55 24 -12 31
-11 52 2 13 9 25 26 27 38 4 29 31 26 108 -10 139 -67 379 -373 540 -687 50
-98 123 -271 145 -345 8 -24 7 -24 -28 7 -47 41 -98 57 -177 57 -103 -1 -175
-46 -187 -118 -24 -151 368 -511 967 -888 391 -246 677 -375 754 -340 22 10
26 18 26 57 0 25 -7 60 -16 76 -8 17 -14 32 -12 33 2 2 118 -2 258 -7 303 -12
624 1 800 33 371 67 696 250 901 507 113 141 155 266 146 428 -6 107 -21 165
-62 248 -112 223 -362 358 -692 374 -184 9 -316 -18 -533 -109 -52 -22 -365
-176 -695 -343 -668 -338 -749 -377 -721 -346 62 68 438 333 696 491 251 153
391 259 527 399 149 152 290 377 315 501 25 128 -64 248 -230 310 -94 35 -157
43 -322 37 -280 -10 -574 -97 -803 -239 l-38 -24 -40 38 c-50 48 -205 123
-285 138 -101 20 -219 10 -285 -23 -79 -38 -181 -141 -219 -221 -81 -171 -61
-358 94 -874 66 -219 80 -289 66 -326 -9 -24 -35 -44 -45 -35 -2 2 -9 51 -15
109 -6 58 -26 161 -44 230 -63 239 -224 786 -261 885 -50 134 -132 297 -197
392 -104 151 -283 306 -409 354 -59 23 -75 23 -111 3z"/>
</g>
</svg>
